# xmcd
#
# Track frame offsets: 
#        150
#        19563
#        34419
#        90717
#        100929
#        120104
#        142612
#        160861
#        169167
#        183951
#        194453
#        221240
#        237380
#        293036
#        298522
#
# Disc length: 4095 seconds
#
# Revision: 0
# Processed by: cddbd v1.5.1PL0 Copyright (c) Steve Scherf et al.
# Submitted via: ExactAudioCopy v0.95a4
#
DISCID=cd0ffd0f
DTITLE=James Brown - I Feel Good - James Brown Live
DYEAR=1980
DGENRE=Funk
TTITLE0=Sex Machine
TTITLE1=I Got You (I Feel Good)
TTITLE2=It's a Man's, Man's, Man's World
TTITLE3=Papa's Got A Brand New Bag
TTITLE4=Give It Up Or Turn It A Loose
TTITLE5=It's Too Funky In Here
TTITLE6=Gonna Have A Funky Good Time
TTITLE7=Try Me
TTITLE8=Get On The Good Foot
TTITLE9=Get Up Offa That Thing
TTITLE10=Georgia On My Mind
TTITLE11=I Got The Feeling
TTITLE12=Super Bad
TTITLE13=Cold Sweat
TTITLE14=I Can't Stand Myself (When You Touch Me)
EXTD=
EXTT0=
EXTT1=
EXTT2=
EXTT3=
EXTT4=
EXTT5=
EXTT6=
EXTT7=
EXTT8=
EXTT9=
EXTT10=
EXTT11=
EXTT12=
EXTT13=
EXTT14=
PLAYORDER=
